<svg width="1111" height="780" viewBox="0 0 1111 780" fill="none" xmlns="http://www.w3.org/2000/svg">
<g style="mix-blend-mode:multiply">
<path d="M-279.265 366.575C-259.758 323.698 -194.899 306.932 -146.934 318.399C-98.9693 329.865 -62.7246 360.696 -24.1604 386.64C14.4038 412.585 61.8648 435.159 112.863 426.271C178.059 414.908 227.838 355.826 293.302 346.854C344.287 339.841 388.94 366.059 417.188 397.921C433.155 415.945 441.989 438.99 456.022 458.204C519.649 545.392 464.036 648.799 534.604 695.973C611.038 747.061 681.716 727.252 714.514 706.991C756.483 681.007 846.176 605.872 798.895 509.51C779.688 470.366 761.946 429.738 756.8 386.303C749.107 321.282 795.998 245.503 870.064 224.149C920.805 209.517 978.539 219.949 1023.43 193.069C1053.62 174.994 1070.71 142.918 1073.04 112.341C1075.37 81.7643 1064.8 52.6213 1049.92 26.3508" stroke="#8A8A8A" stroke-miterlimit="10"/>
<path d="M-278.611 369.57C-256.668 326.161 -190.946 307.547 -141.096 318.651C-92.4692 329.471 -55.4348 360.611 -17.3563 387.38C20.2433 413.896 65.7238 437.377 115.248 430.571C178.603 421.841 228.703 366.871 293.847 358.22C345.676 351.446 391.098 374.888 421.542 405.061C439.021 422.385 449.962 445.167 464.887 464.955C528.144 548.826 475.724 649.479 544.736 695.781C618.969 745.544 688.141 727.692 721.324 708.11C763.403 683.259 849.459 610.705 806.408 516.97C788.666 478.298 772.491 437.63 767.621 394.573C760.325 331.149 804.992 257.796 876.107 235.697C925.305 220.4 981.938 228.906 1026.48 202.433C1056.97 184.367 1074.94 153.177 1079.1 123.089C1083.3 92.7314 1075.14 63.081 1061.93 36.0566" stroke="#909090" stroke-miterlimit="10"/>
<path d="M-277.691 372.429C-253.337 328.562 -186.755 308.032 -135.022 318.787C-85.7073 329.032 -47.8581 360.265 -10.3411 387.99C26.2932 415.06 69.6584 439.407 117.809 434.716C179.316 428.639 229.715 377.659 294.588 369.49C347.244 362.865 393.505 383.585 426.064 412.075C445.113 428.705 458.097 451.238 473.907 471.579C536.584 552.167 487.605 650.003 555.036 695.359C627.073 743.778 694.708 727.912 728.284 709.021C770.357 685.324 852.914 615.298 814.116 524.112C797.85 485.909 783.245 445.27 778.667 402.547C771.776 340.753 814.191 269.82 882.379 246.995C930.023 231.036 985.535 237.626 1029.69 211.573C1060.51 193.512 1079.37 163.197 1085.28 133.615C1091.32 103.41 1085.59 73.3611 1074.09 45.4993" stroke="#959595" stroke-miterlimit="10"/>
<path d="M-276.773 375.281C-250 330.915 -182.566 308.539 -128.948 318.917C-78.978 328.588 -40.3223 359.955 -3.3168 388.581C32.3597 416.195 73.6465 441.453 120.385 438.862C180.037 435.423 230.724 388.531 295.333 380.757C348.808 374.323 395.962 392.282 430.597 419.103C451.203 435.062 466.204 457.336 482.955 478.194C544.978 555.618 499.481 650.519 565.287 695.03C635.111 742.13 701.22 728.209 735.197 709.995C777.271 687.441 856.352 619.908 821.723 531.46C806.93 493.68 794.006 453.098 789.608 410.709C783.323 350.506 823.318 282.001 888.484 258.472C934.609 241.82 988.918 246.414 1032.76 220.883C1063.87 202.754 1083.67 173.381 1091.3 144.288C1099.21 114.245 1095.93 83.8206 1086.08 55.1529" stroke="#9B9B9B" stroke-miterlimit="10"/>
<path d="M-275.851 378.123C-246.665 333.269 -178.38 309.045 -122.876 319.046C-72.2649 328.167 -32.7413 359.648 3.68798 389.255C38.447 417.398 77.6604 443.586 122.914 443.081C180.761 442.226 231.69 399.392 296.088 392.005C350.356 385.75 398.493 400.909 435.143 426.08C457.367 441.348 474.348 463.348 491.994 484.822C553.208 559.123 511.371 651.04 575.573 694.64C643.2 740.396 707.707 728.437 742.129 710.934C784.207 689.494 859.891 624.427 829.366 538.723C816.055 501.353 804.774 460.784 800.571 418.808C794.74 360.21 832.477 294.081 894.644 269.887C939.251 252.513 992.404 255.219 1035.87 230.124C1067.3 211.984 1088.05 183.479 1097.39 154.904C1107.17 125.012 1106.21 94.2289 1098.13 64.7318" stroke="#A0A0A0" stroke-miterlimit="10"/>
<path d="M-274.936 380.976C-243.315 335.628 -174.169 309.515 -116.801 319.174C-65.5558 327.756 -25.1827 359.329 10.7308 389.793C44.5664 418.448 81.563 445.613 125.49 447.2C181.425 449.156 232.733 410.346 296.786 403.352C351.931 397.326 401.022 409.627 439.633 433.184C463.489 447.737 482.403 469.487 501.003 491.484C561.336 562.751 523.244 651.596 585.848 694.303C651.283 738.733 714.249 728.715 749.103 711.918C791.171 691.587 863.548 628.919 837.065 546.038C825.236 509.05 815.543 468.56 811.611 426.954C806.226 369.973 841.706 306.19 900.879 281.349C943.98 263.257 995.944 264.076 1039.05 239.429C1070.79 221.272 1092.53 193.62 1103.55 165.578C1115.23 135.806 1116.62 104.587 1110.25 74.3561" stroke="#A6A6A6" stroke-miterlimit="10"/>
<path d="M-273.995 383.84C-239.951 337.992 -170.005 310.115 -110.686 319.317C-58.8141 327.373 -17.5636 359.018 17.7968 390.398C50.6228 419.547 85.6471 447.713 128.104 451.335C182.214 455.959 233.817 421.232 297.586 414.61C353.584 408.773 403.688 418.223 444.219 440.18C469.743 454.016 490.547 475.559 510.107 498.095C569.37 566.341 535.179 652.101 596.192 693.902C659.406 736.993 720.823 728.93 756.051 712.83C798.083 693.599 867.216 633.253 844.704 553.286C833.743 514.735 826.344 475.19 822.573 435.011C817.563 379.605 850.868 318.143 907.029 292.707C948.645 273.861 999.417 272.822 1042.17 248.606C1074.22 230.449 1096.96 203.657 1109.61 176.133C1123.25 146.496 1126.99 114.922 1122.35 83.8866" stroke="#ABABAB" stroke-miterlimit="10"/>
<path d="M-273.097 386.659C-236.63 340.31 -165.853 310.619 -104.637 319.402C-52.1463 326.943 -10.0162 358.632 24.7896 390.959C56.7062 420.597 89.5863 449.726 130.65 455.444C182.862 462.723 234.804 432.112 298.313 425.827C355.127 420.239 406.316 426.747 448.747 447.14C475.952 460.234 498.62 481.589 519.187 504.668C577.351 569.94 547.126 652.565 606.514 693.461C667.521 735.219 727.369 729.089 763.022 713.708C805.078 695.585 871.023 637.495 852.387 560.493C843.196 522.004 836.932 482.784 833.633 443.078C829.113 389.323 860.133 330.094 913.272 304.105C953.398 284.487 1002.97 281.63 1045.35 257.839C1076 240.416 1100.59 215.576 1115.7 186.786C1131.33 157.213 1137.39 125.28 1134.37 93.4558" stroke="#B1B1B1" stroke-miterlimit="10"/>
<path d="M-272.215 389.511C-233.331 342.674 -161.726 311.198 -98.598 319.538C-45.4743 326.569 -2.44234 358.266 31.7733 391.569C62.767 421.691 93.5486 451.788 133.203 459.627C183.563 469.566 235.819 443.063 299.036 437.163C356.682 431.8 408.964 435.353 453.252 454.222C482.163 466.539 506.682 487.7 528.196 511.314C585.147 573.715 558.963 653.082 616.738 693.079C675.531 733.486 733.79 729.296 769.889 714.627C811.844 697.577 874.792 641.776 859.964 567.775C852.552 529.357 847.407 490.44 844.549 451.174C840.469 399.05 869.283 342.029 919.37 315.533C957.976 295.087 1006.4 290.45 1048.42 267.102C1079.35 249.857 1104.83 225.668 1121.8 197.417C1139.45 167.63 1147.97 135.014 1146.45 103.036" stroke="#B7B7B7" stroke-miterlimit="10"/>
<path d="M-271.273 392.432C-229.948 345.095 -157.521 311.825 -92.4833 319.734C-38.7431 326.263 5.20003 357.988 38.8311 392.213C68.8778 422.811 97.5607 453.907 135.77 463.824C184.255 476.415 236.841 454.054 299.773 448.509C358.288 443.369 411.677 443.924 457.797 461.319C488.415 472.859 514.708 493.931 537.236 518.032C592.93 577.592 570.866 653.71 627.071 692.826C683.658 731.901 740.347 729.629 776.879 715.694C818.819 699.691 878.888 646.013 867.674 575.167C861.995 539.356 858.496 499.548 855.597 459.399C851.936 408.881 878.497 354.012 925.631 327.063C962.791 305.8 1009.96 299.38 1051.6 276.451C1082.87 259.357 1109.22 235.775 1128 208.089C1147.81 178.468 1158.41 145.456 1158.63 112.665" stroke="#BCBCBC" stroke-miterlimit="10"/>
<path d="M-270.36 395.367C-226.611 347.535 -153.348 312.474 -86.3673 319.904C-32.003 325.947 12.862 357.66 45.9321 392.878C75.1122 423.956 101.605 456.016 138.408 468.058C185.044 483.313 237.955 465.078 300.611 459.877C359.944 454.968 414.49 452.499 462.451 468.407C494.815 479.139 522.871 500.117 546.46 524.681C600.822 581.443 582.937 654.246 637.554 692.46C691.938 730.205 747.022 729.852 784.029 716.668C825.885 701.743 883.233 650.145 875.546 582.463C871.508 546.884 869.443 507.297 866.802 467.509C863.548 418.619 887.904 365.848 932.022 338.492C967.705 316.354 1013.69 308.194 1054.95 285.7C1088.3 267.51 1115.32 244.202 1134.3 218.716C1156.21 189.281 1168.88 155.895 1170.87 122.3" stroke="#C2C2C2" stroke-miterlimit="10"/>
<path d="M-269.439 398.296C-223.266 349.969 -149.179 313.139 -80.2756 320.126C-25.2937 325.695 20.5147 357.389 52.9847 393.585C81.2792 425.122 105.651 458.191 141.016 472.332C185.777 490.242 239.007 476.148 301.4 471.296C361.565 466.624 417.263 461.11 467.066 475.56C501.157 485.462 530.948 506.395 555.576 531.487C608.55 585.489 594.908 654.955 647.93 692.278C700.095 728.687 753.604 730.236 791.052 717.805C832.859 703.927 887.6 654.382 883.285 589.937C880.903 554.564 880.291 515.25 877.89 475.8C875.055 428.514 897.243 377.781 938.307 350.078C972.503 327.03 1017.31 317.187 1058.18 295.123C1091.84 276.948 1120.03 254.444 1140.5 229.532C1164.6 200.265 1179.37 166.447 1183.11 131.979" stroke="#C7C7C7" stroke-miterlimit="10"/>
<path d="M-268.524 401.245C-219.903 352.414 -145.013 313.821 -74.1643 320.329C-18.6239 325.415 28.2029 357.075 60.065 394.262C87.4865 426.263 109.677 460.333 143.621 476.596C186.534 497.145 240.081 487.224 302.206 482.704C363.217 478.274 420.071 469.654 471.68 482.706C507.527 491.758 539.032 512.681 564.685 538.222C616.28 589.525 606.788 655.674 658.306 692.008C708.179 727.171 760.131 730.512 798.087 718.86C839.84 706.014 892.194 658.507 891.056 597.326C890.417 562.074 891.043 523.066 888.973 483.99C886.537 438.346 906.384 389.614 944.596 361.601C977.273 337.585 1020.94 326.108 1061.45 304.439C1095.43 286.261 1124.77 264.644 1146.74 240.207C1173.01 211.134 1189.89 176.896 1195.38 141.555" stroke="#CDCDCD" stroke-miterlimit="10"/>
<path d="M-267.608 404.198C-216.552 354.858 -140.812 314.533 -68.0474 320.533C-11.8448 325.207 35.9118 356.768 67.1717 394.965C93.7274 427.419 113.723 462.485 146.279 480.87C187.335 504.073 241.188 498.322 303.045 494.134C364.903 489.946 422.909 478.202 476.351 489.864C513.943 498.061 547.135 518.994 573.926 545.014C623.948 593.613 618.895 656.351 668.802 691.788C716.482 725.624 766.863 730.858 805.249 719.954C846.936 708.135 896.986 662.581 898.937 604.763C900.127 569.652 902.023 530.977 900.231 492.254C898.126 448.284 915.702 401.462 950.988 373.154C982.146 348.169 1024.65 335.063 1064.8 313.817C1099.11 295.63 1129.61 274.913 1153.08 250.95C1181.49 222.096 1200.46 187.458 1207.7 151.253" stroke="#D2D2D2" stroke-miterlimit="10"/>
<path d="M-266.695 407.154C-213.24 357.287 -136.662 315.223 -61.9679 320.721C-5.1382 324.908 43.579 356.428 74.1769 395.626C99.8737 428.521 117.725 464.606 148.812 485.114C188.019 510.959 242.203 509.392 303.743 505.591C366.48 501.673 425.621 486.751 480.878 497.03C520.21 504.353 555.061 525.343 583.006 551.789C631.539 597.734 630.875 657.035 679.153 691.553C724.598 724.046 773.383 731.164 812.249 721.059C853.851 710.244 901.815 666.688 906.656 612.214C909.765 577.205 912.804 538.886 911.292 500.516C909.616 458.111 924.865 413.239 957.257 384.738C986.838 358.715 1028.26 344.053 1068.02 323.208C1102.68 305.028 1134.34 285.223 1159.3 261.711C1189.86 233.088 1210.94 198.043 1219.91 160.955" stroke="#D8D8D8" stroke-miterlimit="10"/>
<path d="M-265.774 410.104C-209.872 359.82 -132.479 315.947 -55.7932 320.951C1.65489 324.692 51.3629 356.122 81.3245 396.333C106.168 429.687 121.834 466.776 151.499 489.411C188.832 517.938 243.303 520.525 304.638 517.007C368.183 513.345 428.508 495.245 485.605 504.179C526.679 510.599 563.161 531.695 592.263 558.539C639.236 601.858 642.962 657.646 689.681 691.288C732.937 722.441 780.105 731.421 819.432 722.122C860.976 712.294 907.027 670.747 914.573 619.605C919.689 584.716 923.764 546.74 922.565 508.722C921.276 467.956 934.12 424.972 963.71 396.258C991.656 369.158 1032.05 352.976 1071.36 332.523C1106.35 314.346 1139.2 295.428 1165.62 272.387C1198.36 244.039 1221.6 208.607 1232.37 170.628" stroke="#DEDEDE" stroke-miterlimit="10"/>
<path d="M-264.861 413.068C-206.481 362.212 -128.308 316.693 -49.6673 321.158C8.39237 324.465 59.1328 355.792 88.4301 397.036C112.421 430.82 125.868 468.915 154.114 493.697C189.623 524.853 244.47 531.692 305.431 528.494C369.845 525.068 431.301 503.767 490.273 511.354C533.092 516.87 571.176 538.12 601.484 565.336C646.853 606.101 655.063 658.304 700.161 691.06C741.214 720.867 786.772 731.699 826.566 723.224C868.053 714.383 912.367 674.873 922.439 627.067C929.75 592.314 934.656 554.673 933.77 517.007C932.848 477.858 943.277 436.671 970.092 407.858C996.343 379.642 1035.79 361.988 1074.76 341.94C1110.09 323.8 1144.09 305.841 1172.02 283.187C1206.87 255.059 1232.19 219.191 1244.66 180.29" stroke="#E3E3E3" stroke-miterlimit="10"/>
<path d="M-263.953 416.043C-203.131 364.675 -124.133 317.436 -43.5435 321.373C15.089 324.23 66.9094 355.458 95.5215 397.742C118.693 431.956 130.027 471.042 156.747 497.989C190.473 531.733 245.494 542.837 306.277 539.932C371.496 536.821 434.107 512.28 494.894 518.54C539.421 523.106 579.11 544.587 610.662 572.116C654.407 610.301 667.179 658.874 710.592 690.822C749.517 719.208 793.394 731.955 833.655 724.305C875.085 716.451 917.819 679.043 930.242 634.519C940.405 598.334 945.343 561.622 944.933 525.275C944.365 487.768 952.303 448.394 976.399 419.491C1000.86 390.151 1039.4 371.027 1078.02 351.391C1113.64 333.237 1148.85 316.248 1178.25 294.012C1215.26 266.144 1242.71 229.864 1256.93 190.038" stroke="#E9E9E9" stroke-miterlimit="10"/>
<path d="M-263.025 418.989C-199.774 367.131 -119.843 318.155 -37.4037 321.569C21.9066 324.018 74.7027 355.104 102.636 398.417C124.981 433.073 134.09 473.197 159.364 502.283C191.242 538.695 246.612 553.943 307.137 551.435C373.204 548.596 436.958 520.808 499.594 525.738C545.901 529.397 587.062 551.114 619.907 578.931C662.024 614.594 679.312 659.558 721.131 690.601C757.83 717.645 800.063 732.219 840.836 725.428C882.197 718.528 923.499 683.328 938.151 641.994C950.501 606.324 956.588 569.742 956.192 533.561C955.979 497.667 961.337 460.118 982.872 431.054C1005.45 400.551 1043.2 379.969 1081.42 360.747C1117.35 342.585 1153.73 326.538 1184.67 304.729C1223.8 277.125 1253.39 240.435 1269.37 199.679" stroke="#EEEEEE" stroke-miterlimit="10"/>
<path d="M-262.11 421.956C-196.4 369.591 -115.754 318.939 -31.2672 321.773C28.6687 323.792 82.5195 354.768 109.741 399.113C131.278 434.205 138.162 475.366 162.011 506.557C192.024 545.665 247.665 565.267 307.907 562.877C374.808 560.44 439.68 529.257 504.204 532.9C552.24 535.601 594.875 557.66 629.071 585.698C669.531 618.855 691.34 660.179 731.556 690.328C766.04 716.035 806.716 732.427 847.907 726.487C889.099 720.547 929.186 687.705 945.952 649.411C960.829 615.443 967.214 578.443 967.358 541.795C967.477 507.552 970.193 471.82 989.234 442.562C1009.81 410.906 1046.93 388.946 1084.76 370.009C1121.16 351.961 1158.62 336.821 1191.01 315.373C1232.26 288.046 1263.98 250.949 1281.72 209.258" stroke="#F4F4F4" stroke-miterlimit="10"/>
<path d="M-261.197 424.922C-193.041 372.042 -111.59 319.807 -25.136 321.983C35.4082 323.655 90.4074 354.423 116.849 399.804C137.533 435.299 142.193 477.576 164.658 510.861C192.835 552.617 248.769 576.407 308.749 574.368C376.502 572.174 442.489 537.757 508.884 540.09C558.644 541.845 602.717 564.307 638.323 592.498C677.124 623.149 703.492 660.799 742.063 690.096C774.337 714.453 813.416 732.65 855.059 727.59C896.331 722.575 935.059 692.275 953.839 656.892C971.606 623.428 978.11 586.356 978.58 550.064C979.001 517.446 979.024 483.586 995.585 454.215C1014.09 421.409 1050.6 397.975 1088.02 379.517C1124.74 361.471 1163.33 347.312 1197.27 326.251C1240.65 299.21 1274.5 261.703 1294.01 219.062" stroke="#F9F9F9" stroke-miterlimit="10"/>
<path d="M-260.281 427.889C-189.677 374.495 -107.376 320.469 -18.9261 322.207C42.2554 323.378 98.2755 354.067 124.036 400.51C143.911 436.441 146.234 479.67 167.275 515.139C193.579 559.578 249.873 587.479 309.54 585.846C378.144 583.896 445.234 546.237 513.527 547.27C565.007 548.06 610.426 571.022 647.52 599.295C684.613 627.567 715.553 661.499 752.535 689.847C782.539 712.844 820.074 732.839 862.161 728.671C903.392 724.594 940.837 697.109 961.671 664.34C982.505 631.571 988.951 594.235 989.8 558.352C990.562 527.375 987.782 495.406 1001.97 465.817C1018.27 431.837 1054.3 406.962 1091.35 388.918C1128.41 370.874 1168.2 357.746 1203.6 337.034C1249.1 310.282 1285.09 272.364 1306.37 228.765" stroke="white" stroke-miterlimit="10"/>
</g>
</svg>
